<svg width="24" height="24" viewBox="0 0 24 24" fill="none" xmlns="http://www.w3.org/2000/svg">
<path d="M12.0005 22.8533C12.4205 22.8437 12.8235 22.6858 13.1383 22.4076C13.453 22.1295 13.6593 21.7489 13.7205 21.3333H10.2139C10.2768 21.7602 10.4927 22.1497 10.8214 22.4293C11.1501 22.7089 11.5691 22.8596 12.0005 22.8533Z" fill="#2D0C03"/>
<path d="M21.8999 18.7533L21.6732 18.5533C21.0302 17.9804 20.4673 17.3234 19.9999 16.6C19.4894 15.6017 19.1834 14.5115 19.0999 13.3933V10.1C19.0972 9.69998 19.0615 9.30085 18.9932 8.90668C17.8639 8.67457 16.8496 8.05936 16.1219 7.1652C15.3942 6.27104 14.9978 5.15288 14.9999 4.00002V3.58002C14.3038 3.23748 13.556 3.01222 12.7865 2.91335V2.07335C12.7865 1.83731 12.6928 1.61093 12.5259 1.44402C12.359 1.27712 12.1326 1.18335 11.8965 1.18335C11.6605 1.18335 11.4341 1.27712 11.2672 1.44402C11.1003 1.61093 11.0065 1.83731 11.0065 2.07335V2.94668C9.28368 3.18972 7.70692 4.04785 6.56735 5.36264C5.42778 6.67743 4.80236 8.36011 4.80654 10.1V13.3933C4.72304 14.5115 4.41705 15.6017 3.90654 16.6C3.44712 17.3216 2.89333 17.9785 2.25987 18.5533L2.0332 18.7533V20.6333H21.8999V18.7533Z" fill="#2D0C03"/>
<path d="M20.0003 7.33332C21.8413 7.33332 23.3337 5.84094 23.3337 3.99999C23.3337 2.15904 21.8413 0.666656 20.0003 0.666656C18.1594 0.666656 16.667 2.15904 16.667 3.99999C16.667 5.84094 18.1594 7.33332 20.0003 7.33332Z" fill="#2D0C03"/>
</svg>
