<svg width="40" height="40" viewBox="0 0 40 40" fill="none" xmlns="http://www.w3.org/2000/svg">
<g clip-path="url(#clip0)">
<path fill-rule="evenodd" clip-rule="evenodd" d="M38.4061 15.5951H1.60249C1.16089 15.5951 0.80249 15.9539 0.80249 16.3971V39.1975C0.80249 39.6407 1.16089 39.9999 1.60249 39.9999H38.4061C38.5113 39.9998 38.6155 39.979 38.7127 39.9386C38.8099 39.8982 38.8982 39.8391 38.9725 39.7645C39.0469 39.69 39.1058 39.6016 39.1459 39.5043C39.1861 39.407 39.2066 39.3028 39.2065 39.1975V16.3971C39.2066 16.2919 39.186 16.1877 39.1458 16.0905C39.1056 15.9932 39.0467 15.9048 38.9724 15.8304C38.8981 15.7559 38.8098 15.6968 38.7126 15.6564C38.6155 15.6161 38.5113 15.5952 38.4061 15.5951Z" fill="#D35400"/>
<path fill-rule="evenodd" clip-rule="evenodd" d="M2 6.38967V39.1913C2 39.6381 2.3584 40.0001 2.8 40.0001H37.2004C37.306 39.9995 37.4104 39.9781 37.5077 39.9372C37.6051 39.8962 37.6934 39.8365 37.7676 39.7615C37.8419 39.6864 37.9006 39.5974 37.9405 39.4997C37.9804 39.4019 38.0006 39.2972 38 39.1917V0.796071C38.0006 0.690488 37.9804 0.585824 37.9405 0.488057C37.9006 0.390289 37.8419 0.301332 37.7676 0.226265C37.6934 0.151198 37.6051 0.0914904 37.5077 0.0505523C37.4104 0.00961429 37.306 -0.0117529 37.2004 -0.0123291L8.4016 -0.0091291L2 6.38967Z" fill="#ECF0F1"/>
<path opacity="0.1" d="M16 28.8L37.9988 15.6L38 18.392L20.4112 28.8H16Z" fill="black"/>
<path fill-rule="evenodd" clip-rule="evenodd" d="M0.800049 39.1964C0.800049 39.6404 1.15805 40 1.60005 40H38.4001C38.8416 40 39.2001 39.6404 39.2001 39.1964V16.8L20 28.4L0.800049 16.8V39.1964Z" fill="#F39C12"/>
<path fill-rule="evenodd" clip-rule="evenodd" d="M2 6.38963L8.4004 6.39363V3.05176e-05L2 6.38963Z" fill="#F1C40F"/>
<path d="M0.800049 16.8L0.820849 38.4L20 28.4L0.800049 16.8Z" fill="#F1C40F"/>
<path d="M39.2 16.8L20 28.4L39.2 38.4V16.8Z" fill="#E57E22"/>
<path opacity="0.3" fill-rule="evenodd" clip-rule="evenodd" d="M39.2001 39.1964V38.4L20 28.4L38.9313 39.7928C39.0949 39.646 39.2001 39.4344 39.2001 39.1964ZM0.800049 39.1964V38.4L20 28.4L1.06885 39.7928C0.984511 39.718 0.916959 39.6261 0.870632 39.5234C0.824305 39.4206 0.80025 39.3091 0.800049 39.1964Z" fill="black"/>
</g>
<defs>
<clipPath id="clip0">
<rect width="40" height="40" fill="white"/>
</clipPath>
</defs>
</svg>
