<svg width="13" height="10" viewBox="0 0 13 10" fill="none" xmlns="http://www.w3.org/2000/svg">
<path d="M4.49863 4.96857C4.49863 5.38574 4.66435 5.78582 4.95933 6.0808C5.25432 6.37579 5.6544 6.54151 6.07157 6.54151C6.48874 6.54151 6.88882 6.37579 7.1838 6.0808C7.47879 5.78582 7.64451 5.38574 7.64451 4.96857C7.64451 4.5514 7.47879 4.15132 7.1838 3.85633C6.88882 3.56135 6.48874 3.39563 6.07157 3.39563C5.6544 3.39563 5.25432 3.56135 4.95933 3.85633C4.66435 4.15132 4.49863 4.5514 4.49863 4.96857ZM12.1695 4.60623C10.8381 1.80163 8.82561 0.390198 6.12774 0.390198C3.42847 0.390198 1.41736 1.80163 0.0859808 4.60764C0.0325787 4.72071 0.00488281 4.84422 0.00488281 4.96927C0.00488281 5.09432 0.0325787 5.21783 0.0859808 5.33091C1.41736 8.13551 3.42988 9.54694 6.12774 9.54694C8.82702 9.54694 10.8381 8.13551 12.1695 5.3295C12.2776 5.10199 12.2776 4.83796 12.1695 4.60623ZM6.07157 7.44033C4.70648 7.44033 3.59981 6.33365 3.59981 4.96857C3.59981 3.60348 4.70648 2.49681 6.07157 2.49681C7.43665 2.49681 8.54333 3.60348 8.54333 4.96857C8.54333 6.33365 7.43665 7.44033 6.07157 7.44033Z" fill="#A1C042"/>
</svg>
