<svg width="37" height="41" viewBox="0 0 37 41" fill="none" xmlns="http://www.w3.org/2000/svg">
<path opacity="0.1" fill-rule="evenodd" clip-rule="evenodd" d="M18.5 39.79C28.165 39.79 36 31.2491 36 20.7134C36 10.1776 28.165 1.63672 18.5 1.63672C8.83502 1.63672 1 10.1776 1 20.7134C1 31.2491 8.83502 39.79 18.5 39.79Z" stroke="#0A142F" stroke-width="1.5"/>
<path d="M20.0932 15.8309H21.7016C21.8495 15.8309 21.9696 15.7075 21.9696 15.5555V13.9033C21.9696 13.7513 21.8495 13.6279 21.7016 13.6279H20.0932C18.4677 13.6279 17.1445 14.9866 17.1445 16.657V18.5846H15.2681C15.1201 18.5846 15 18.708 15 18.86V20.5122C15 20.6642 15.1201 20.7876 15.2681 20.7876H17.1445V26.5703C17.1445 26.7223 17.2646 26.8457 17.4126 26.8457H19.0209C19.1689 26.8457 19.289 26.7223 19.289 26.5703V20.7876H21.1655C21.2807 20.7876 21.3831 20.7116 21.4201 20.5992L21.9562 18.947C21.9836 18.8633 21.9696 18.7707 21.9192 18.6986C21.8683 18.627 21.7879 18.5846 21.7016 18.5846H19.289V16.657C19.289 16.2015 19.6498 15.8309 20.0932 15.8309Z" fill="#0A142F"/>
</svg>
