<svg width="18" height="19" viewBox="0 0 18 19" fill="none" xmlns="http://www.w3.org/2000/svg">
<path d="M13 0.0244141L18 4.68905V17.7435C18.0009 17.866 17.976 17.9875 17.9266 18.101C17.8772 18.2145 17.8043 18.3178 17.7121 18.4051C17.6199 18.4923 17.5101 18.5618 17.3892 18.6094C17.2682 18.6571 17.1383 18.6821 17.007 18.6829H0.993C0.730378 18.6812 0.479018 18.5832 0.293218 18.4101C0.107418 18.2369 0.00209465 18.0025 0 17.7575V0.949877C0 0.438634 0.447 0.0244141 0.999 0.0244141H13ZM10 7.48783H9V12.1525H10V7.48783ZM8 7.48783H6C5.46957 7.48783 4.96086 7.68441 4.58579 8.03432C4.21072 8.38424 4 8.85882 4 9.35368V10.2866C4 10.7815 4.21072 11.256 4.58579 11.606C4.96086 11.9559 5.46957 12.1525 6 12.1525H7C7.26522 12.1525 7.51957 12.0542 7.70711 11.8792C7.89465 11.7043 8 11.467 8 11.2195V9.35368H6V10.2866H7V11.2195H6C5.73479 11.2195 5.48043 11.1212 5.2929 10.9463C5.10536 10.7713 5 10.534 5 10.2866V9.35368C5 9.10625 5.10536 8.86896 5.2929 8.694C5.48043 8.51904 5.73479 8.42075 6 8.42075H8V7.48783ZM14 7.48783H11V12.1525H12V10.2866H14V9.35368H12V8.42075H14V7.48783Z" fill="#2C4B75"/>
</svg>
