<svg width="48" height="48" viewBox="0 0 48 48" fill="none" xmlns="http://www.w3.org/2000/svg">
<path d="M43.611 20.0829H42V19.9999H24V27.9999H35.303C33.654 32.6569 29.223 35.9999 24 35.9999C17.373 35.9999 12 30.6269 12 23.9999C12 17.3729 17.373 11.9999 24 11.9999C27.059 11.9999 29.842 13.1539 31.961 15.0389L37.618 9.38188C34.046 6.05288 29.268 3.99988 24 3.99988C12.955 3.99988 4 12.9549 4 23.9999C4 35.0449 12.955 43.9999 24 43.9999C35.045 43.9999 44 35.0449 44 23.9999C44 22.6589 43.862 21.3499 43.611 20.0829Z" fill="#FFC107"/>
<path d="M6.30591 14.6909L12.8769 19.5099C14.6549 15.1079 18.9609 11.9999 23.9999 11.9999C27.0589 11.9999 29.8419 13.1539 31.9609 15.0389L37.6179 9.38188C34.0459 6.05288 29.2679 3.99988 23.9999 3.99988C16.3179 3.99988 9.65591 8.33688 6.30591 14.6909Z" fill="#DB4437"/>
<path d="M24.0001 43.9999C29.1661 43.9999 33.8601 42.0229 37.4091 38.8079L31.2191 33.5699C29.1436 35.1483 26.6075 36.002 24.0001 35.9999C18.7981 35.9999 14.3811 32.6829 12.7171 28.0539L6.19507 33.0789C9.50507 39.5559 16.2271 43.9999 24.0001 43.9999Z" fill="#D04D2A"/>
<path d="M43.611 20.083H42V20H24V28H35.303C34.5142 30.2164 33.0934 32.1532 31.216 33.571L31.219 33.569L37.409 38.807C36.971 39.205 44 34 44 24C44 22.659 43.862 21.35 43.611 20.083Z" fill="#1976D2"/>
</svg>
