<svg width="17" height="12" viewBox="0 0 17 12" fill="none" xmlns="http://www.w3.org/2000/svg">
<path d="M2.78937 3.21378C2.78937 4.80769 3.9918 6.01012 5.58571 6.01012C7.17962 6.01012 8.38204 4.80769 8.38204 3.21378C8.38204 1.61987 7.17962 0.41745 5.58571 0.41745C3.9918 0.41745 2.78937 1.61987 2.78937 3.21378ZM14.3742 2.77276H12.7763V5.16962H10.3794V6.76752H12.7763V9.16438H14.3742V6.76752H16.771V5.16962H14.3742V2.77276ZM2.3899 11.5612H10.3794V10.7623C10.3794 8.55957 8.58737 6.76752 6.38466 6.76752H4.78675C2.58404 6.76752 0.791992 8.55957 0.791992 10.7623V11.5612H2.3899Z" fill="#A1C042"/>
</svg>
