<svg width="37" height="41" viewBox="0 0 37 41" fill="none" xmlns="http://www.w3.org/2000/svg">
<path opacity="0.1" fill-rule="evenodd" clip-rule="evenodd" d="M18.5 39.79C28.165 39.79 36 31.2491 36 20.7134C36 10.1776 28.165 1.63672 18.5 1.63672C8.83502 1.63672 1 10.1776 1 20.7134C1 31.2491 8.83502 39.79 18.5 39.79Z" stroke="#0A142F" stroke-width="1.5"/>
<path d="M14.4836 16.8623C15.3029 16.8623 15.9671 16.1383 15.9671 15.2451C15.9671 14.352 15.3029 13.6279 14.4836 13.6279C13.6642 13.6279 13 14.352 13 15.2451C13 16.1383 13.6642 16.8623 14.4836 16.8623Z" fill="#0A142F"/>
<path d="M15.7198 17.9434H13.2473C13.1108 17.9434 13 18.0641 13 18.2129V26.2988C13 26.4476 13.1108 26.5684 13.2473 26.5684H15.7198C15.8563 26.5684 15.9671 26.4476 15.9671 26.2988V18.2129C15.9671 18.0641 15.8563 17.9434 15.7198 17.9434Z" fill="#0A142F"/>
<path d="M23.088 17.4948C22.0313 17.1002 20.7094 17.4469 19.9167 18.0684C19.8895 17.9525 19.7926 17.8662 19.6774 17.8662H17.2048C17.0683 17.8662 16.9575 17.987 16.9575 18.1358V26.2217C16.9575 26.3705 17.0683 26.4912 17.2048 26.4912H19.6774C19.8138 26.4912 19.9246 26.3705 19.9246 26.2217V20.4106C20.3242 20.0354 20.839 19.9157 21.2603 20.1109C21.6688 20.299 21.9027 20.7583 21.9027 21.3701V26.2217C21.9027 26.3705 22.0135 26.4912 22.1499 26.4912H24.6225C24.759 26.4912 24.8698 26.3705 24.8698 26.2217V20.8273C24.8416 18.6123 23.8857 17.7924 23.088 17.4948Z" fill="#0A142F"/>
</svg>
