<svg width="16" height="17" viewBox="0 0 16 17" fill="none" xmlns="http://www.w3.org/2000/svg">
<path d="M13.8264 6.62981H13.0427C12.942 6.62981 12.8701 6.54247 12.827 6.42337C12.8013 6.37963 12.7876 6.32861 12.7876 6.27648C12.7876 6.22435 12.8013 6.17333 12.827 6.12959L13.4094 5.54203C13.5235 5.42078 13.6142 5.27525 13.676 5.11422C13.7378 4.95318 13.7694 4.77999 13.7689 4.6051C13.7688 4.42914 13.7369 4.25498 13.6752 4.09276C13.6134 3.93054 13.5231 3.78351 13.4094 3.66024L12.4459 2.57245C12.3342 2.44833 12.2015 2.34983 12.0553 2.28261C11.909 2.21539 11.7522 2.18079 11.5938 2.18079C11.4354 2.18079 11.2785 2.21539 11.1323 2.28261C10.9861 2.34983 10.8533 2.44833 10.7417 2.57245L10.188 3.16001C10.144 3.19114 10.0929 3.20768 10.0406 3.20768C9.98836 3.20768 9.9372 3.19114 9.8932 3.16001C9.84978 3.14213 9.81186 3.111 9.78385 3.07023C9.75584 3.02946 9.7389 2.98074 9.73501 2.92975V2.11193C9.73515 1.76492 9.61282 1.43151 9.39399 1.18246C9.17517 0.933412 8.87706 0.788327 8.56295 0.778H7.16798C6.84693 0.777994 6.53892 0.918278 6.31123 1.16821C6.08354 1.41815 5.95467 1.75742 5.95277 2.11193V2.97739C5.95277 3.08855 5.87367 3.16795 5.76582 3.21559C5.7262 3.24396 5.68 3.25905 5.63279 3.25905C5.58558 3.25905 5.53938 3.24396 5.49976 3.21559L4.96766 2.57245C4.73992 2.32247 4.43307 2.1801 4.11198 2.17545C3.95372 2.17579 3.79713 2.21109 3.65141 2.27927C3.50569 2.34745 3.3738 2.44713 3.2635 2.57245L2.27839 3.63642C2.1627 3.76005 2.07071 3.90812 2.00789 4.0718C1.94507 4.23548 1.91269 4.41144 1.91269 4.58922C1.91269 4.767 1.94507 4.94296 2.00789 5.10664C2.07071 5.27033 2.1627 5.41839 2.27839 5.54203L2.81049 6.12959C2.83868 6.17817 2.85366 6.23466 2.85366 6.29236C2.85366 6.35006 2.83868 6.40655 2.81049 6.45513C2.7943 6.50308 2.7661 6.54495 2.72918 6.57588C2.69226 6.60681 2.64814 6.62551 2.60196 6.62981H1.86134C1.54095 6.62981 1.23369 6.77035 1.00714 7.02051C0.780593 7.27067 0.65332 7.60996 0.65332 7.96374V9.46441C0.653315 9.81892 0.780358 10.159 1.0067 10.4105C1.23304 10.6619 1.54029 10.8042 1.86134 10.8063H2.64511C2.74578 10.8063 2.81768 10.8936 2.86083 11.0127C2.88651 11.0565 2.90018 11.1075 2.90018 11.1596C2.90018 11.2117 2.88651 11.2628 2.86083 11.3065L2.27839 11.8941C2.05201 12.1455 1.92308 12.4844 1.91886 12.8389C1.91861 13.015 1.9503 13.1892 2.01205 13.3515C2.0738 13.5138 2.16436 13.6608 2.27839 13.7838L3.24193 14.8636C3.35354 14.9878 3.48629 15.0863 3.63253 15.1535C3.77877 15.2207 3.9356 15.2553 4.09401 15.2553C4.25241 15.2553 4.40925 15.2207 4.55549 15.1535C4.70173 15.0863 4.83448 14.9878 4.94609 14.8636L5.49976 14.2761C5.54376 14.2449 5.59492 14.2284 5.64717 14.2284C5.69942 14.2284 5.75058 14.2449 5.79458 14.2761C5.838 14.294 5.87592 14.3251 5.90393 14.3659C5.93194 14.4066 5.94888 14.4553 5.95277 14.5063V15.3718C5.96395 15.7173 6.09614 16.0444 6.32149 16.2844C6.54683 16.5243 6.84774 16.6583 7.16079 16.6581H8.5198C8.84085 16.6581 9.14886 16.5178 9.37655 16.2679C9.60424 16.0179 9.73311 15.6787 9.73501 15.3242V14.4587C9.73501 14.3475 9.81411 14.2681 9.92196 14.2205C9.96158 14.1921 10.0078 14.177 10.055 14.177C10.1022 14.177 10.1484 14.1921 10.188 14.2205L10.7345 14.8319C10.9622 15.0819 11.2691 15.2242 11.5902 15.2289C11.7484 15.2285 11.905 15.1932 12.0508 15.1251C12.1965 15.0569 12.3284 14.9572 12.4387 14.8319L13.4022 13.7679C13.5146 13.6447 13.6038 13.4981 13.6647 13.3366C13.7256 13.1751 13.7569 13.0019 13.7569 12.827C13.7569 12.6521 13.7256 12.4789 13.6647 12.3174C13.6038 12.156 13.5146 12.0094 13.4022 11.8861L12.8773 11.3065C12.8516 11.2628 12.8379 11.2117 12.8379 11.1596C12.8379 11.1075 12.8516 11.0565 12.8773 11.0127C12.8935 10.9648 12.9217 10.9229 12.9586 10.892C12.9955 10.861 13.0396 10.8423 13.0858 10.838H13.8696C14.1812 10.8257 14.4764 10.6809 14.6935 10.4337C14.9106 10.1866 15.0328 9.85635 15.0345 9.51205V7.97168C15.0345 7.61717 14.9074 7.27705 14.6811 7.02563C14.4547 6.77421 14.1475 6.63191 13.8264 6.62981ZM7.84389 11.4971C7.34613 11.4971 6.85956 11.3341 6.44569 11.0287C6.03182 10.7233 5.70925 10.2893 5.51876 9.78153C5.32828 9.27373 5.27844 8.71496 5.37555 8.17588C5.47266 7.63681 5.71235 7.14164 6.06431 6.75298C6.41628 6.36433 6.86471 6.09966 7.35291 5.99243C7.8411 5.8852 8.34712 5.94023 8.80699 6.15057C9.26686 6.36091 9.65991 6.7171 9.93645 7.17411C10.213 7.63111 10.3606 8.16841 10.3606 8.71804C10.3606 9.45508 10.0954 10.1619 9.62346 10.6831C9.15149 11.2043 8.51136 11.4971 7.84389 11.4971Z" fill="#A1C042"/>
</svg>
