<svg width="37" height="41" viewBox="0 0 37 41" fill="none" xmlns="http://www.w3.org/2000/svg">
<path opacity="0.1" fill-rule="evenodd" clip-rule="evenodd" d="M18.5 39.79C28.165 39.79 36 31.2491 36 20.7134C36 10.1776 28.165 1.63672 18.5 1.63672C8.83502 1.63672 1 10.1776 1 20.7134C1 31.2491 8.83502 39.79 18.5 39.79Z" stroke="#0A142F" stroke-width="1.5"/>
<path d="M24.2202 17.1864C24.139 17.0863 24.0081 17.0612 23.9007 17.1229C23.8339 17.1612 23.7083 17.2116 23.5592 17.2613C23.7473 16.9809 23.8985 16.6669 23.9653 16.3847C23.9942 16.263 23.952 16.1348 23.8601 16.0623C23.7682 15.9904 23.6458 15.9904 23.5539 16.0623C23.4091 16.1756 22.7102 16.5159 22.2683 16.6261C21.2696 15.6453 20.1074 15.5434 18.8992 16.3343C17.9171 16.9773 17.7034 18.2847 17.7451 19.0816C15.4971 18.839 14.0998 17.5076 13.3132 16.4056C13.2582 16.3283 13.1695 16.2876 13.0861 16.2936C12.9985 16.3008 12.9194 16.3553 12.8745 16.4398C12.5026 17.1438 12.3995 17.9222 12.5774 18.691C12.6747 19.1104 12.8446 19.4801 13.0418 19.7797C12.9472 19.7276 12.8558 19.6622 12.7698 19.5843C12.6907 19.5112 12.5801 19.4975 12.4866 19.546C12.3936 19.5957 12.3343 19.7012 12.3343 19.8168C12.3343 21.1368 13.0706 22.0177 13.7583 22.4778C13.6472 22.4629 13.5312 22.4353 13.4142 22.3951C13.3138 22.361 13.2048 22.3951 13.1353 22.4838C13.0658 22.5719 13.0493 22.6977 13.0926 22.805C13.4789 23.7631 14.2109 24.4222 15.1166 24.6613C14.3258 25.182 13.2673 25.4372 12.298 25.312C12.1724 25.2922 12.0527 25.3815 12.0132 25.5169C11.9736 25.6523 12.0255 25.8009 12.1361 25.8705C13.6066 26.7962 14.936 27.127 16.0849 27.127C17.7568 27.127 19.0473 26.4271 19.8327 25.8417C21.9503 24.2658 23.2702 21.4364 23.0863 18.9049C23.4256 18.6238 23.9333 18.1049 24.248 17.5471C24.3132 17.4345 24.3014 17.2859 24.2202 17.1864Z" fill="#0A142F"/>
</svg>
